<svg width="195" height="38" viewBox="0 0 195 38" fill="none" xmlns="http://www.w3.org/2000/svg">
<rect width="195" height="38" rx="5" fill="#E9BF33"/>
<path d="M52.596 17.06C52.412 17.06 52.264 17.004 52.152 16.892C52.04 16.772 51.984 16.62 51.984 16.436V9.14C51.984 8.956 52.036 8.812 52.14 8.708C52.252 8.596 52.404 8.54 52.596 8.54H56.892C57.276 8.54 57.468 8.708 57.468 9.044C57.468 9.38 57.276 9.548 56.892 9.548H53.208V12.2H56.652C57.036 12.2 57.228 12.368 57.228 12.704C57.228 13.04 57.036 13.208 56.652 13.208H53.208V16.436C53.208 16.628 53.152 16.78 53.04 16.892C52.936 17.004 52.788 17.06 52.596 17.06ZM65.4597 16.28C65.4997 16.376 65.5197 16.456 65.5197 16.52C65.5197 16.672 65.4557 16.8 65.3277 16.904C65.2077 17.008 65.0717 17.06 64.9197 17.06C64.8157 17.06 64.7157 17.032 64.6197 16.976C64.5317 16.912 64.4637 16.824 64.4157 16.712L63.6237 14.912H59.2317L58.4397 16.712C58.3917 16.824 58.3197 16.912 58.2237 16.976C58.1277 17.032 58.0277 17.06 57.9237 17.06C57.7637 17.06 57.6197 17.008 57.4917 16.904C57.3717 16.8 57.3117 16.672 57.3117 16.52C57.3117 16.456 57.3317 16.376 57.3717 16.28L60.7557 8.876C60.8117 8.748 60.8997 8.648 61.0197 8.576C61.1477 8.504 61.2797 8.468 61.4157 8.468C61.5517 8.468 61.6797 8.504 61.7997 8.576C61.9277 8.648 62.0197 8.748 62.0757 8.876L65.4597 16.28ZM63.1917 13.928L61.4277 9.956L59.6757 13.928H63.1917ZM67.4082 17C67.2242 17 67.0762 16.948 66.9642 16.844C66.8602 16.74 66.8082 16.6 66.8082 16.424V9.104C66.8082 8.92 66.8642 8.772 66.9762 8.66C67.0882 8.54 67.2362 8.48 67.4202 8.48C67.6122 8.48 67.7642 8.536 67.8762 8.648C67.9882 8.76 68.0442 8.912 68.0442 9.104V15.968H71.6922C71.8762 15.968 72.0162 16.012 72.1122 16.1C72.2162 16.188 72.2682 16.316 72.2682 16.484C72.2682 16.652 72.2162 16.78 72.1122 16.868C72.0162 16.956 71.8762 17 71.6922 17H67.4082ZM73.9827 17C73.7907 17 73.6387 16.948 73.5267 16.844C73.4227 16.732 73.3707 16.584 73.3707 16.4V9.14C73.3707 8.956 73.4227 8.812 73.5267 8.708C73.6387 8.596 73.7907 8.54 73.9827 8.54H78.3987C78.5827 8.54 78.7227 8.584 78.8187 8.672C78.9227 8.76 78.9747 8.884 78.9747 9.044C78.9747 9.204 78.9227 9.328 78.8187 9.416C78.7227 9.496 78.5827 9.536 78.3987 9.536H74.5827V12.2H78.1587C78.3427 12.2 78.4827 12.244 78.5787 12.332C78.6827 12.42 78.7347 12.544 78.7347 12.704C78.7347 12.864 78.6827 12.988 78.5787 13.076C78.4827 13.164 78.3427 13.208 78.1587 13.208H74.5827V16.004H78.3987C78.7827 16.004 78.9747 16.168 78.9747 16.496C78.9747 16.656 78.9227 16.78 78.8187 16.868C78.7227 16.956 78.5827 17 78.3987 17H73.9827ZM87.2383 17.096C86.4303 17.096 85.7263 16.924 85.1263 16.58C84.5263 16.228 84.0663 15.728 83.7463 15.08C83.4263 14.424 83.2663 13.652 83.2663 12.764C83.2663 11.884 83.4263 11.12 83.7463 10.472C84.0663 9.816 84.5263 9.316 85.1263 8.972C85.7263 8.62 86.4303 8.444 87.2383 8.444C87.7663 8.444 88.2663 8.528 88.7383 8.696C89.2103 8.856 89.6223 9.092 89.9743 9.404C90.1263 9.524 90.2023 9.684 90.2023 9.884C90.2023 10.028 90.1623 10.152 90.0823 10.256C90.0023 10.352 89.9063 10.4 89.7943 10.4C89.6583 10.4 89.5263 10.348 89.3983 10.244C89.0143 9.956 88.6623 9.756 88.3423 9.644C88.0303 9.524 87.6743 9.464 87.2743 9.464C86.3943 9.464 85.7183 9.748 85.2463 10.316C84.7743 10.884 84.5383 11.7 84.5383 12.764C84.5383 13.836 84.7743 14.656 85.2463 15.224C85.7183 15.792 86.3943 16.076 87.2743 16.076C87.6583 16.076 88.0063 16.016 88.3183 15.896C88.6383 15.776 88.9983 15.576 89.3983 15.296C89.5583 15.192 89.6903 15.14 89.7943 15.14C89.9063 15.14 90.0023 15.192 90.0823 15.296C90.1623 15.392 90.2023 15.512 90.2023 15.656C90.2023 15.856 90.1263 16.016 89.9743 16.136C89.6223 16.448 89.2103 16.688 88.7383 16.856C88.2663 17.016 87.7663 17.096 87.2383 17.096ZM95.1708 17.096C94.3708 17.096 93.6748 16.92 93.0828 16.568C92.4988 16.216 92.0468 15.716 91.7268 15.068C91.4068 14.42 91.2468 13.656 91.2468 12.776C91.2468 11.888 91.4028 11.12 91.7148 10.472C92.0348 9.816 92.4908 9.316 93.0828 8.972C93.6748 8.62 94.3708 8.444 95.1708 8.444C95.9788 8.444 96.6788 8.62 97.2708 8.972C97.8628 9.316 98.3148 9.816 98.6268 10.472C98.9468 11.12 99.1068 11.884 99.1068 12.764C99.1068 13.644 98.9468 14.412 98.6268 15.068C98.3148 15.716 97.8628 16.216 97.2708 16.568C96.6788 16.92 95.9788 17.096 95.1708 17.096ZM95.1708 16.088C96.0188 16.088 96.6788 15.8 97.1508 15.224C97.6228 14.648 97.8588 13.828 97.8588 12.764C97.8588 11.7 97.6228 10.884 97.1508 10.316C96.6868 9.74 96.0268 9.452 95.1708 9.452C94.3308 9.452 93.6748 9.74 93.2028 10.316C92.7388 10.884 92.5068 11.7 92.5068 12.764C92.5068 13.828 92.7388 14.648 93.2028 15.224C93.6748 15.8 94.3308 16.088 95.1708 16.088ZM108.305 8.48C108.481 8.48 108.625 8.54 108.737 8.66C108.849 8.772 108.905 8.92 108.905 9.104V16.472C108.905 16.656 108.853 16.8 108.749 16.904C108.653 17.008 108.517 17.06 108.341 17.06C108.173 17.06 108.041 17.008 107.945 16.904C107.849 16.8 107.801 16.656 107.801 16.472V10.892L105.449 15.368C105.297 15.648 105.101 15.788 104.861 15.788C104.621 15.788 104.425 15.648 104.273 15.368L101.909 10.94V16.472C101.909 16.656 101.861 16.8 101.765 16.904C101.669 17.008 101.533 17.06 101.357 17.06C101.189 17.06 101.053 17.008 100.949 16.904C100.853 16.792 100.805 16.648 100.805 16.472V9.104C100.805 8.92 100.861 8.772 100.973 8.66C101.085 8.54 101.229 8.48 101.405 8.48C101.653 8.48 101.853 8.624 102.005 8.912L104.873 14.396L107.717 8.912C107.869 8.624 108.065 8.48 108.305 8.48ZM117.683 17.096C116.883 17.096 116.187 16.92 115.595 16.568C115.011 16.216 114.559 15.716 114.239 15.068C113.919 14.42 113.759 13.656 113.759 12.776C113.759 11.888 113.915 11.12 114.227 10.472C114.547 9.816 115.003 9.316 115.595 8.972C116.187 8.62 116.883 8.444 117.683 8.444C118.491 8.444 119.191 8.62 119.783 8.972C120.375 9.316 120.827 9.816 121.139 10.472C121.459 11.12 121.619 11.884 121.619 12.764C121.619 13.644 121.459 14.412 121.139 15.068C120.827 15.716 120.375 16.216 119.783 16.568C119.191 16.92 118.491 17.096 117.683 17.096ZM117.683 16.088C118.531 16.088 119.191 15.8 119.663 15.224C120.135 14.648 120.371 13.828 120.371 12.764C120.371 11.7 120.135 10.884 119.663 10.316C119.199 9.74 118.539 9.452 117.683 9.452C116.843 9.452 116.187 9.74 115.715 10.316C115.251 10.884 115.019 11.7 115.019 12.764C115.019 13.828 115.251 14.648 115.715 15.224C116.187 15.8 116.843 16.088 117.683 16.088ZM132.828 8.48C133.004 8.48 133.144 8.54 133.248 8.66C133.36 8.772 133.416 8.92 133.416 9.104V16.436C133.416 16.62 133.36 16.772 133.248 16.892C133.136 17.004 132.992 17.06 132.816 17.06C132.608 17.06 132.448 16.98 132.336 16.82L127.632 10.616V16.436C127.632 16.62 127.576 16.772 127.464 16.892C127.36 17.004 127.22 17.06 127.044 17.06C126.868 17.06 126.728 17.004 126.624 16.892C126.52 16.78 126.468 16.628 126.468 16.436V9.104C126.468 8.92 126.524 8.772 126.636 8.66C126.748 8.54 126.892 8.48 127.068 8.48C127.276 8.48 127.436 8.56 127.548 8.72L132.252 14.936V9.104C132.252 8.92 132.304 8.772 132.408 8.66C132.512 8.54 132.652 8.48 132.828 8.48ZM139.022 17.096C138.222 17.096 137.526 16.92 136.934 16.568C136.35 16.216 135.898 15.716 135.578 15.068C135.258 14.42 135.098 13.656 135.098 12.776C135.098 11.888 135.254 11.12 135.566 10.472C135.886 9.816 136.342 9.316 136.934 8.972C137.526 8.62 138.222 8.444 139.022 8.444C139.83 8.444 140.53 8.62 141.122 8.972C141.714 9.316 142.166 9.816 142.478 10.472C142.798 11.12 142.958 11.884 142.958 12.764C142.958 13.644 142.798 14.412 142.478 15.068C142.166 15.716 141.714 16.216 141.122 16.568C140.53 16.92 139.83 17.096 139.022 17.096ZM139.022 16.088C139.87 16.088 140.53 15.8 141.002 15.224C141.474 14.648 141.71 13.828 141.71 12.764C141.71 11.7 141.474 10.884 141.002 10.316C140.538 9.74 139.878 9.452 139.022 9.452C138.182 9.452 137.526 9.74 137.054 10.316C136.59 10.884 136.358 11.7 136.358 12.764C136.358 13.828 136.59 14.648 137.054 15.224C137.526 15.8 138.182 16.088 139.022 16.088ZM147.44 17.096C146.832 17.096 146.252 17.012 145.7 16.844C145.156 16.676 144.72 16.444 144.392 16.148C144.24 16.02 144.164 15.856 144.164 15.656C144.164 15.512 144.204 15.392 144.284 15.296C144.364 15.192 144.46 15.14 144.572 15.14C144.684 15.14 144.82 15.192 144.98 15.296C145.692 15.824 146.504 16.088 147.416 16.088C148.056 16.088 148.548 15.968 148.892 15.728C149.236 15.488 149.408 15.144 149.408 14.696C149.408 14.344 149.248 14.08 148.928 13.904C148.608 13.728 148.096 13.56 147.392 13.4C146.72 13.256 146.168 13.092 145.736 12.908C145.304 12.724 144.964 12.476 144.716 12.164C144.476 11.844 144.356 11.44 144.356 10.952C144.356 10.464 144.488 10.032 144.752 9.656C145.024 9.272 145.4 8.976 145.88 8.768C146.36 8.552 146.908 8.444 147.524 8.444C148.092 8.444 148.616 8.524 149.096 8.684C149.576 8.844 149.984 9.08 150.32 9.392C150.48 9.528 150.56 9.692 150.56 9.884C150.56 10.02 150.516 10.14 150.428 10.244C150.348 10.348 150.252 10.4 150.14 10.4C150.036 10.4 149.904 10.348 149.744 10.244C149.376 9.964 149.028 9.764 148.7 9.644C148.38 9.516 147.992 9.452 147.536 9.452C146.92 9.452 146.44 9.58 146.096 9.836C145.752 10.084 145.58 10.432 145.58 10.88C145.58 11.264 145.732 11.556 146.036 11.756C146.34 11.948 146.828 12.124 147.5 12.284C148.204 12.444 148.772 12.612 149.204 12.788C149.644 12.956 149.992 13.192 150.248 13.496C150.512 13.792 150.644 14.176 150.644 14.648C150.644 15.128 150.508 15.556 150.236 15.932C149.972 16.3 149.596 16.588 149.108 16.796C148.628 16.996 148.072 17.096 147.44 17.096ZM154.964 17.096C154.356 17.096 153.776 17.012 153.224 16.844C152.68 16.676 152.244 16.444 151.916 16.148C151.764 16.02 151.688 15.856 151.688 15.656C151.688 15.512 151.728 15.392 151.808 15.296C151.888 15.192 151.984 15.14 152.096 15.14C152.208 15.14 152.344 15.192 152.504 15.296C153.216 15.824 154.028 16.088 154.94 16.088C155.58 16.088 156.072 15.968 156.416 15.728C156.76 15.488 156.932 15.144 156.932 14.696C156.932 14.344 156.772 14.08 156.452 13.904C156.132 13.728 155.62 13.56 154.916 13.4C154.244 13.256 153.692 13.092 153.26 12.908C152.828 12.724 152.488 12.476 152.24 12.164C152 11.844 151.88 11.44 151.88 10.952C151.88 10.464 152.012 10.032 152.276 9.656C152.548 9.272 152.924 8.976 153.404 8.768C153.884 8.552 154.432 8.444 155.048 8.444C155.616 8.444 156.14 8.524 156.62 8.684C157.1 8.844 157.508 9.08 157.844 9.392C158.004 9.528 158.084 9.692 158.084 9.884C158.084 10.02 158.04 10.14 157.952 10.244C157.872 10.348 157.776 10.4 157.664 10.4C157.56 10.4 157.428 10.348 157.268 10.244C156.9 9.964 156.552 9.764 156.224 9.644C155.904 9.516 155.516 9.452 155.06 9.452C154.444 9.452 153.964 9.58 153.62 9.836C153.276 10.084 153.104 10.432 153.104 10.88C153.104 11.264 153.256 11.556 153.56 11.756C153.864 11.948 154.352 12.124 155.024 12.284C155.728 12.444 156.296 12.612 156.728 12.788C157.168 12.956 157.516 13.192 157.772 13.496C158.036 13.792 158.168 14.176 158.168 14.648C158.168 15.128 158.032 15.556 157.76 15.932C157.496 16.3 157.12 16.588 156.632 16.796C156.152 16.996 155.596 17.096 154.964 17.096ZM163.327 17.096C162.527 17.096 161.831 16.92 161.239 16.568C160.655 16.216 160.203 15.716 159.883 15.068C159.563 14.42 159.403 13.656 159.403 12.776C159.403 11.888 159.559 11.12 159.871 10.472C160.191 9.816 160.647 9.316 161.239 8.972C161.831 8.62 162.527 8.444 163.327 8.444C164.135 8.444 164.835 8.62 165.427 8.972C166.019 9.316 166.471 9.816 166.783 10.472C167.103 11.12 167.263 11.884 167.263 12.764C167.263 13.644 167.103 14.412 166.783 15.068C166.471 15.716 166.019 16.216 165.427 16.568C164.835 16.92 164.135 17.096 163.327 17.096ZM163.327 16.088C164.175 16.088 164.835 15.8 165.307 15.224C165.779 14.648 166.015 13.828 166.015 12.764C166.015 11.7 165.779 10.884 165.307 10.316C164.843 9.74 164.183 9.452 163.327 9.452C162.487 9.452 161.831 9.74 161.359 10.316C160.895 10.884 160.663 11.7 160.663 12.764C160.663 13.828 160.895 14.648 161.359 15.224C161.831 15.8 162.487 16.088 163.327 16.088ZM55.668 29.096C54.86 29.096 54.156 28.924 53.556 28.58C52.956 28.228 52.496 27.728 52.176 27.08C51.856 26.424 51.696 25.652 51.696 24.764C51.696 23.884 51.856 23.12 52.176 22.472C52.496 21.816 52.956 21.316 53.556 20.972C54.156 20.62 54.86 20.444 55.668 20.444C56.196 20.444 56.696 20.528 57.168 20.696C57.64 20.856 58.052 21.092 58.404 21.404C58.556 21.524 58.632 21.684 58.632 21.884C58.632 22.028 58.592 22.152 58.512 22.256C58.432 22.352 58.336 22.4 58.224 22.4C58.088 22.4 57.956 22.348 57.828 22.244C57.444 21.956 57.092 21.756 56.772 21.644C56.46 21.524 56.104 21.464 55.704 21.464C54.824 21.464 54.148 21.748 53.676 22.316C53.204 22.884 52.968 23.7 52.968 24.764C52.968 25.836 53.204 26.656 53.676 27.224C54.148 27.792 54.824 28.076 55.704 28.076C56.088 28.076 56.436 28.016 56.748 27.896C57.068 27.776 57.428 27.576 57.828 27.296C57.988 27.192 58.12 27.14 58.224 27.14C58.336 27.14 58.432 27.192 58.512 27.296C58.592 27.392 58.632 27.512 58.632 27.656C58.632 27.856 58.556 28.016 58.404 28.136C58.052 28.448 57.64 28.688 57.168 28.856C56.696 29.016 56.196 29.096 55.668 29.096ZM63.6005 29.096C62.8005 29.096 62.1045 28.92 61.5125 28.568C60.9285 28.216 60.4765 27.716 60.1565 27.068C59.8365 26.42 59.6765 25.656 59.6765 24.776C59.6765 23.888 59.8325 23.12 60.1445 22.472C60.4645 21.816 60.9205 21.316 61.5125 20.972C62.1045 20.62 62.8005 20.444 63.6005 20.444C64.4085 20.444 65.1085 20.62 65.7005 20.972C66.2925 21.316 66.7445 21.816 67.0565 22.472C67.3765 23.12 67.5365 23.884 67.5365 24.764C67.5365 25.644 67.3765 26.412 67.0565 27.068C66.7445 27.716 66.2925 28.216 65.7005 28.568C65.1085 28.92 64.4085 29.096 63.6005 29.096ZM63.6005 28.088C64.4485 28.088 65.1085 27.8 65.5805 27.224C66.0525 26.648 66.2885 25.828 66.2885 24.764C66.2885 23.7 66.0525 22.884 65.5805 22.316C65.1165 21.74 64.4565 21.452 63.6005 21.452C62.7605 21.452 62.1045 21.74 61.6325 22.316C61.1685 22.884 60.9365 23.7 60.9365 24.764C60.9365 25.828 61.1685 26.648 61.6325 27.224C62.1045 27.8 62.7605 28.088 63.6005 28.088ZM75.5823 20.48C75.7583 20.48 75.8983 20.54 76.0023 20.66C76.1143 20.772 76.1703 20.92 76.1703 21.104V28.436C76.1703 28.62 76.1143 28.772 76.0023 28.892C75.8903 29.004 75.7463 29.06 75.5703 29.06C75.3623 29.06 75.2023 28.98 75.0903 28.82L70.3863 22.616V28.436C70.3863 28.62 70.3303 28.772 70.2183 28.892C70.1143 29.004 69.9743 29.06 69.7983 29.06C69.6223 29.06 69.4823 29.004 69.3783 28.892C69.2743 28.78 69.2223 28.628 69.2223 28.436V21.104C69.2223 20.92 69.2783 20.772 69.3903 20.66C69.5023 20.54 69.6463 20.48 69.8223 20.48C70.0303 20.48 70.1903 20.56 70.3023 20.72L75.0063 26.936V21.104C75.0063 20.92 75.0583 20.772 75.1623 20.66C75.2663 20.54 75.4063 20.48 75.5823 20.48ZM80.9363 29.096C80.3283 29.096 79.7483 29.012 79.1963 28.844C78.6523 28.676 78.2163 28.444 77.8883 28.148C77.7363 28.02 77.6603 27.856 77.6603 27.656C77.6603 27.512 77.7003 27.392 77.7803 27.296C77.8603 27.192 77.9563 27.14 78.0683 27.14C78.1803 27.14 78.3163 27.192 78.4763 27.296C79.1883 27.824 80.0003 28.088 80.9123 28.088C81.5523 28.088 82.0443 27.968 82.3883 27.728C82.7323 27.488 82.9043 27.144 82.9043 26.696C82.9043 26.344 82.7443 26.08 82.4243 25.904C82.1043 25.728 81.5923 25.56 80.8883 25.4C80.2163 25.256 79.6643 25.092 79.2323 24.908C78.8003 24.724 78.4603 24.476 78.2123 24.164C77.9723 23.844 77.8523 23.44 77.8523 22.952C77.8523 22.464 77.9843 22.032 78.2483 21.656C78.5203 21.272 78.8963 20.976 79.3763 20.768C79.8563 20.552 80.4043 20.444 81.0203 20.444C81.5883 20.444 82.1123 20.524 82.5923 20.684C83.0723 20.844 83.4803 21.08 83.8163 21.392C83.9763 21.528 84.0563 21.692 84.0563 21.884C84.0563 22.02 84.0123 22.14 83.9243 22.244C83.8443 22.348 83.7483 22.4 83.6363 22.4C83.5323 22.4 83.4003 22.348 83.2403 22.244C82.8723 21.964 82.5243 21.764 82.1963 21.644C81.8763 21.516 81.4883 21.452 81.0323 21.452C80.4163 21.452 79.9363 21.58 79.5923 21.836C79.2483 22.084 79.0763 22.432 79.0763 22.88C79.0763 23.264 79.2283 23.556 79.5323 23.756C79.8363 23.948 80.3243 24.124 80.9963 24.284C81.7003 24.444 82.2683 24.612 82.7003 24.788C83.1403 24.956 83.4883 25.192 83.7443 25.496C84.0083 25.792 84.1403 26.176 84.1403 26.648C84.1403 27.128 84.0043 27.556 83.7323 27.932C83.4683 28.3 83.0923 28.588 82.6043 28.796C82.1243 28.996 81.5683 29.096 80.9363 29.096ZM89.0477 29.096C87.9197 29.096 87.0637 28.804 86.4797 28.22C85.8957 27.636 85.6037 26.776 85.6037 25.64V21.104C85.6037 20.912 85.6597 20.76 85.7717 20.648C85.8837 20.536 86.0317 20.48 86.2157 20.48C86.3997 20.48 86.5477 20.536 86.6597 20.648C86.7717 20.76 86.8277 20.912 86.8277 21.104V25.724C86.8277 26.5 87.0117 27.088 87.3797 27.488C87.7557 27.888 88.3117 28.088 89.0477 28.088C89.7757 28.088 90.3277 27.888 90.7037 27.488C91.0797 27.088 91.2677 26.5 91.2677 25.724V21.104C91.2677 20.92 91.3237 20.772 91.4357 20.66C91.5477 20.54 91.6957 20.48 91.8797 20.48C92.0637 20.48 92.2117 20.536 92.3237 20.648C92.4357 20.76 92.4917 20.912 92.4917 21.104V25.64C92.4917 26.768 92.1957 27.628 91.6037 28.22C91.0197 28.804 90.1677 29.096 89.0477 29.096ZM94.9942 29C94.8102 29 94.6622 28.948 94.5502 28.844C94.4462 28.74 94.3942 28.6 94.3942 28.424V21.104C94.3942 20.92 94.4502 20.772 94.5622 20.66C94.6742 20.54 94.8222 20.48 95.0062 20.48C95.1982 20.48 95.3502 20.536 95.4622 20.648C95.5742 20.76 95.6302 20.912 95.6302 21.104V27.968H99.2782C99.4622 27.968 99.6022 28.012 99.6982 28.1C99.8022 28.188 99.8542 28.316 99.8542 28.484C99.8542 28.652 99.8022 28.78 99.6982 28.868C99.6022 28.956 99.4622 29 99.2782 29H94.9942ZM102.097 29.06C101.913 29.06 101.761 29.004 101.641 28.892C101.529 28.772 101.473 28.62 101.473 28.436V21.572H99.0727C98.6887 21.572 98.4967 21.4 98.4967 21.056C98.4967 20.888 98.5447 20.76 98.6407 20.672C98.7447 20.584 98.8887 20.54 99.0727 20.54H105.121C105.305 20.54 105.445 20.584 105.541 20.672C105.645 20.76 105.697 20.888 105.697 21.056C105.697 21.4 105.505 21.572 105.121 21.572H102.721V28.436C102.721 28.62 102.665 28.772 102.553 28.892C102.441 29.004 102.289 29.06 102.097 29.06ZM109.843 29.096C109.043 29.096 108.347 28.92 107.755 28.568C107.171 28.216 106.719 27.716 106.399 27.068C106.079 26.42 105.919 25.656 105.919 24.776C105.919 23.888 106.075 23.12 106.387 22.472C106.707 21.816 107.163 21.316 107.755 20.972C108.347 20.62 109.043 20.444 109.843 20.444C110.651 20.444 111.351 20.62 111.943 20.972C112.535 21.316 112.987 21.816 113.299 22.472C113.619 23.12 113.779 23.884 113.779 24.764C113.779 25.644 113.619 26.412 113.299 27.068C112.987 27.716 112.535 28.216 111.943 28.568C111.351 28.92 110.651 29.096 109.843 29.096ZM109.843 28.088C110.691 28.088 111.351 27.8 111.823 27.224C112.295 26.648 112.531 25.828 112.531 24.764C112.531 23.7 112.295 22.884 111.823 22.316C111.359 21.74 110.699 21.452 109.843 21.452C109.003 21.452 108.347 21.74 107.875 22.316C107.411 22.884 107.179 23.7 107.179 24.764C107.179 25.828 107.411 26.648 107.875 27.224C108.347 27.8 109.003 28.088 109.843 28.088ZM122.064 28.232C122.136 28.336 122.172 28.448 122.172 28.568C122.172 28.712 122.112 28.836 121.992 28.94C121.88 29.036 121.748 29.084 121.596 29.084C121.372 29.084 121.192 28.984 121.056 28.784L119.448 26.288C119.264 26 119.068 25.8 118.86 25.688C118.652 25.568 118.38 25.508 118.044 25.508H116.688V28.436C116.688 28.628 116.632 28.78 116.52 28.892C116.416 29.004 116.268 29.06 116.076 29.06C115.892 29.06 115.744 29.004 115.632 28.892C115.52 28.78 115.464 28.628 115.464 28.436V21.14C115.464 20.956 115.516 20.812 115.62 20.708C115.732 20.596 115.884 20.54 116.076 20.54H119.064C120 20.54 120.712 20.748 121.2 21.164C121.696 21.58 121.944 22.188 121.944 22.988C121.944 23.652 121.756 24.192 121.38 24.608C121.004 25.016 120.468 25.276 119.772 25.388C119.98 25.444 120.168 25.544 120.336 25.688C120.504 25.832 120.668 26.032 120.828 26.288L122.064 28.232ZM118.92 24.512C119.544 24.512 120.004 24.392 120.3 24.152C120.604 23.904 120.756 23.524 120.756 23.012C120.756 22.5 120.608 22.128 120.312 21.896C120.016 21.656 119.552 21.536 118.92 21.536H116.676V24.512H118.92ZM130.55 29.096C129.75 29.096 129.054 28.92 128.462 28.568C127.878 28.216 127.426 27.716 127.106 27.068C126.786 26.42 126.626 25.656 126.626 24.776C126.626 23.888 126.782 23.12 127.094 22.472C127.414 21.816 127.87 21.316 128.462 20.972C129.054 20.62 129.75 20.444 130.55 20.444C131.358 20.444 132.058 20.62 132.65 20.972C133.242 21.316 133.694 21.816 134.006 22.472C134.326 23.12 134.486 23.884 134.486 24.764C134.486 25.644 134.326 26.412 134.006 27.068C133.694 27.716 133.242 28.216 132.65 28.568C132.058 28.92 131.358 29.096 130.55 29.096ZM130.55 28.088C131.398 28.088 132.058 27.8 132.53 27.224C133.002 26.648 133.238 25.828 133.238 24.764C133.238 23.7 133.002 22.884 132.53 22.316C132.066 21.74 131.406 21.452 130.55 21.452C129.71 21.452 129.054 21.74 128.582 22.316C128.118 22.884 127.886 23.7 127.886 24.764C127.886 25.828 128.118 26.648 128.582 27.224C129.054 27.8 129.71 28.088 130.55 28.088ZM142.532 20.48C142.708 20.48 142.848 20.54 142.952 20.66C143.064 20.772 143.12 20.92 143.12 21.104V28.436C143.12 28.62 143.064 28.772 142.952 28.892C142.84 29.004 142.696 29.06 142.52 29.06C142.312 29.06 142.152 28.98 142.04 28.82L137.336 22.616V28.436C137.336 28.62 137.28 28.772 137.168 28.892C137.064 29.004 136.924 29.06 136.748 29.06C136.572 29.06 136.432 29.004 136.328 28.892C136.224 28.78 136.172 28.628 136.172 28.436V21.104C136.172 20.92 136.228 20.772 136.34 20.66C136.452 20.54 136.596 20.48 136.771 20.48C136.98 20.48 137.14 20.56 137.252 20.72L141.956 26.936V21.104C141.956 20.92 142.008 20.772 142.112 20.66C142.216 20.54 142.356 20.48 142.532 20.48ZM145.689 29C145.505 29 145.357 28.948 145.245 28.844C145.141 28.74 145.089 28.6 145.089 28.424V21.104C145.089 20.92 145.145 20.772 145.257 20.66C145.369 20.54 145.517 20.48 145.701 20.48C145.893 20.48 146.045 20.536 146.157 20.648C146.269 20.76 146.325 20.912 146.325 21.104V27.968H149.973C150.157 27.968 150.297 28.012 150.393 28.1C150.497 28.188 150.549 28.316 150.549 28.484C150.549 28.652 150.497 28.78 150.393 28.868C150.297 28.956 150.157 29 149.973 29H145.689ZM152.264 29.06C152.08 29.06 151.932 29.004 151.82 28.892C151.708 28.78 151.652 28.628 151.652 28.436V21.104C151.652 20.92 151.708 20.772 151.82 20.66C151.932 20.54 152.08 20.48 152.264 20.48C152.456 20.48 152.608 20.536 152.72 20.648C152.832 20.76 152.888 20.912 152.888 21.104V28.436C152.888 28.628 152.832 28.78 152.72 28.892C152.616 29.004 152.464 29.06 152.264 29.06ZM161.211 20.48C161.387 20.48 161.527 20.54 161.631 20.66C161.743 20.772 161.799 20.92 161.799 21.104V28.436C161.799 28.62 161.743 28.772 161.631 28.892C161.519 29.004 161.375 29.06 161.199 29.06C160.991 29.06 160.831 28.98 160.719 28.82L156.015 22.616V28.436C156.015 28.62 155.959 28.772 155.847 28.892C155.743 29.004 155.603 29.06 155.427 29.06C155.251 29.06 155.111 29.004 155.007 28.892C154.903 28.78 154.851 28.628 154.851 28.436V21.104C154.851 20.92 154.907 20.772 155.019 20.66C155.131 20.54 155.275 20.48 155.451 20.48C155.659 20.48 155.819 20.56 155.931 20.72L160.635 26.936V21.104C160.635 20.92 160.687 20.772 160.791 20.66C160.895 20.54 161.035 20.48 161.211 20.48ZM164.381 29C164.189 29 164.037 28.948 163.925 28.844C163.821 28.732 163.769 28.584 163.769 28.4V21.14C163.769 20.956 163.821 20.812 163.925 20.708C164.037 20.596 164.189 20.54 164.381 20.54H168.797C168.981 20.54 169.121 20.584 169.217 20.672C169.321 20.76 169.373 20.884 169.373 21.044C169.373 21.204 169.321 21.328 169.217 21.416C169.121 21.496 168.981 21.536 168.797 21.536H164.981V24.2H168.557C168.741 24.2 168.881 24.244 168.977 24.332C169.081 24.42 169.133 24.544 169.133 24.704C169.133 24.864 169.081 24.988 168.977 25.076C168.881 25.164 168.741 25.208 168.557 25.208H164.981V28.004H168.797C169.181 28.004 169.373 28.168 169.373 28.496C169.373 28.656 169.321 28.78 169.217 28.868C169.121 28.956 168.981 29 168.797 29H164.381Z" fill="#E5E5E5"/>
<path fill-rule="evenodd" clip-rule="evenodd" d="M26.1688 10.1333C21.9734 10.1333 18.5714 13.5364 18.5714 17.7333V23.6444C18.5714 25.0462 19.7026 26.1777 21.1039 26.1777H23.6363V19.4222H20.2597V17.7333C20.2597 14.4653 22.9019 11.8222 26.1688 11.8222C29.4357 11.8222 32.0779 14.4653 32.0779 17.7333V19.4222H28.7013V26.1777H32.0779V27.0222H26.1688V28.7111H31.2337C32.635 28.7111 33.7662 27.5795 33.7662 26.1777V17.7333C33.7662 13.5364 30.3643 10.1333 26.1688 10.1333Z" fill="#E5E5E5"/>
</svg>
