<svg width="195" height="38" viewBox="0 0 195 38" fill="none" xmlns="http://www.w3.org/2000/svg">
<rect width="195" height="38" rx="5" fill="#E9BF33"/>
<path d="M52.596 25C52.404 25 52.252 24.948 52.14 24.844C52.036 24.732 51.984 24.584 51.984 24.4V17.14C51.984 16.956 52.036 16.812 52.14 16.708C52.252 16.596 52.404 16.54 52.596 16.54H57.012C57.196 16.54 57.336 16.584 57.432 16.672C57.536 16.76 57.588 16.884 57.588 17.044C57.588 17.204 57.536 17.328 57.432 17.416C57.336 17.496 57.196 17.536 57.012 17.536H53.196V20.2H56.772C56.956 20.2 57.096 20.244 57.192 20.332C57.296 20.42 57.348 20.544 57.348 20.704C57.348 20.864 57.296 20.988 57.192 21.076C57.096 21.164 56.956 21.208 56.772 21.208H53.196V24.004H57.012C57.396 24.004 57.588 24.168 57.588 24.496C57.588 24.656 57.536 24.78 57.432 24.868C57.336 24.956 57.196 25 57.012 25H52.596ZM65.3635 16.48C65.5395 16.48 65.6795 16.54 65.7835 16.66C65.8955 16.772 65.9515 16.92 65.9515 17.104V24.436C65.9515 24.62 65.8955 24.772 65.7835 24.892C65.6715 25.004 65.5275 25.06 65.3515 25.06C65.1435 25.06 64.9835 24.98 64.8715 24.82L60.1675 18.616V24.436C60.1675 24.62 60.1115 24.772 59.9995 24.892C59.8955 25.004 59.7555 25.06 59.5795 25.06C59.4035 25.06 59.2635 25.004 59.1595 24.892C59.0555 24.78 59.0035 24.628 59.0035 24.436V17.104C59.0035 16.92 59.0595 16.772 59.1715 16.66C59.2835 16.54 59.4275 16.48 59.6035 16.48C59.8115 16.48 59.9715 16.56 60.0835 16.72L64.7875 22.936V17.104C64.7875 16.92 64.8395 16.772 64.9435 16.66C65.0475 16.54 65.1875 16.48 65.3635 16.48ZM70.5615 25.06C70.3775 25.06 70.2255 25.004 70.1055 24.892C69.9935 24.772 69.9375 24.62 69.9375 24.436V17.572H67.5375C67.1535 17.572 66.9615 17.4 66.9615 17.056C66.9615 16.888 67.0095 16.76 67.1055 16.672C67.2095 16.584 67.3535 16.54 67.5375 16.54H73.5855C73.7695 16.54 73.9095 16.584 74.0055 16.672C74.1095 16.76 74.1615 16.888 74.1615 17.056C74.1615 17.4 73.9695 17.572 73.5855 17.572H71.1855V24.436C71.1855 24.62 71.1295 24.772 71.0175 24.892C70.9055 25.004 70.7535 25.06 70.5615 25.06ZM81.7871 24.232C81.8591 24.336 81.8951 24.448 81.8951 24.568C81.8951 24.712 81.8351 24.836 81.7151 24.94C81.6031 25.036 81.4711 25.084 81.3191 25.084C81.0951 25.084 80.9151 24.984 80.7791 24.784L79.1711 22.288C78.9871 22 78.7911 21.8 78.5831 21.688C78.3751 21.568 78.1031 21.508 77.7671 21.508H76.4111V24.436C76.4111 24.628 76.3551 24.78 76.2431 24.892C76.1391 25.004 75.9911 25.06 75.7991 25.06C75.6151 25.06 75.4671 25.004 75.3551 24.892C75.2431 24.78 75.1871 24.628 75.1871 24.436V17.14C75.1871 16.956 75.2391 16.812 75.3431 16.708C75.4551 16.596 75.6071 16.54 75.7991 16.54H78.7871C79.7231 16.54 80.4351 16.748 80.9231 17.164C81.4191 17.58 81.6671 18.188 81.6671 18.988C81.6671 19.652 81.4791 20.192 81.1031 20.608C80.7271 21.016 80.1911 21.276 79.4951 21.388C79.7031 21.444 79.8911 21.544 80.0591 21.688C80.2271 21.832 80.3911 22.032 80.5511 22.288L81.7871 24.232ZM78.6431 20.512C79.2671 20.512 79.7271 20.392 80.0231 20.152C80.3271 19.904 80.4791 19.524 80.4791 19.012C80.4791 18.5 80.3311 18.128 80.0351 17.896C79.7391 17.656 79.2751 17.536 78.6431 17.536H76.3991V20.512H78.6431ZM84.0843 25C83.8923 25 83.7403 24.948 83.6283 24.844C83.5243 24.732 83.4723 24.584 83.4723 24.4V17.14C83.4723 16.956 83.5243 16.812 83.6283 16.708C83.7403 16.596 83.8923 16.54 84.0843 16.54H88.5003C88.6843 16.54 88.8243 16.584 88.9203 16.672C89.0243 16.76 89.0763 16.884 89.0763 17.044C89.0763 17.204 89.0243 17.328 88.9203 17.416C88.8243 17.496 88.6843 17.536 88.5003 17.536H84.6843V20.2H88.2603C88.4443 20.2 88.5843 20.244 88.6803 20.332C88.7843 20.42 88.8363 20.544 88.8363 20.704C88.8363 20.864 88.7843 20.988 88.6803 21.076C88.5843 21.164 88.4443 21.208 88.2603 21.208H84.6843V24.004H88.5003C88.8843 24.004 89.0763 24.168 89.0763 24.496C89.0763 24.656 89.0243 24.78 88.9203 24.868C88.8243 24.956 88.6843 25 88.5003 25H84.0843ZM94.2679 25C94.0759 25 93.9239 24.948 93.8119 24.844C93.7079 24.732 93.6559 24.584 93.6559 24.4V17.14C93.6559 16.956 93.7079 16.812 93.8119 16.708C93.9239 16.596 94.0759 16.54 94.2679 16.54H98.6839C98.8679 16.54 99.0079 16.584 99.1039 16.672C99.2079 16.76 99.2599 16.884 99.2599 17.044C99.2599 17.204 99.2079 17.328 99.1039 17.416C99.0079 17.496 98.8679 17.536 98.6839 17.536H94.8679V20.2H98.4439C98.6279 20.2 98.7679 20.244 98.8639 20.332C98.9679 20.42 99.0199 20.544 99.0199 20.704C99.0199 20.864 98.9679 20.988 98.8639 21.076C98.7679 21.164 98.6279 21.208 98.4439 21.208H94.8679V24.004H98.6839C99.0679 24.004 99.2599 24.168 99.2599 24.496C99.2599 24.656 99.2079 24.78 99.1039 24.868C99.0079 24.956 98.8679 25 98.6839 25H94.2679ZM108.187 16.48C108.363 16.48 108.507 16.54 108.619 16.66C108.731 16.772 108.787 16.92 108.787 17.104V24.472C108.787 24.656 108.735 24.8 108.631 24.904C108.535 25.008 108.399 25.06 108.223 25.06C108.055 25.06 107.923 25.008 107.827 24.904C107.731 24.8 107.683 24.656 107.683 24.472V18.892L105.331 23.368C105.179 23.648 104.983 23.788 104.743 23.788C104.503 23.788 104.307 23.648 104.155 23.368L101.791 18.94V24.472C101.791 24.656 101.743 24.8 101.647 24.904C101.551 25.008 101.415 25.06 101.239 25.06C101.071 25.06 100.935 25.008 100.831 24.904C100.735 24.792 100.687 24.648 100.687 24.472V17.104C100.687 16.92 100.743 16.772 100.855 16.66C100.967 16.54 101.111 16.48 101.287 16.48C101.535 16.48 101.735 16.624 101.887 16.912L104.755 22.396L107.599 16.912C107.751 16.624 107.947 16.48 108.187 16.48ZM117.613 25.096C116.805 25.096 116.101 24.924 115.501 24.58C114.901 24.228 114.441 23.728 114.121 23.08C113.801 22.424 113.641 21.652 113.641 20.764C113.641 19.884 113.801 19.12 114.121 18.472C114.441 17.816 114.901 17.316 115.501 16.972C116.101 16.62 116.805 16.444 117.613 16.444C118.141 16.444 118.641 16.528 119.113 16.696C119.585 16.856 119.997 17.092 120.349 17.404C120.501 17.524 120.577 17.684 120.577 17.884C120.577 18.028 120.537 18.152 120.457 18.256C120.377 18.352 120.281 18.4 120.169 18.4C120.033 18.4 119.901 18.348 119.773 18.244C119.389 17.956 119.037 17.756 118.717 17.644C118.405 17.524 118.049 17.464 117.649 17.464C116.769 17.464 116.093 17.748 115.621 18.316C115.149 18.884 114.913 19.7 114.913 20.764C114.913 21.836 115.149 22.656 115.621 23.224C116.093 23.792 116.769 24.076 117.649 24.076C118.033 24.076 118.381 24.016 118.693 23.896C119.013 23.776 119.373 23.576 119.773 23.296C119.933 23.192 120.065 23.14 120.169 23.14C120.281 23.14 120.377 23.192 120.457 23.296C120.537 23.392 120.577 23.512 120.577 23.656C120.577 23.856 120.501 24.016 120.349 24.136C119.997 24.448 119.585 24.688 119.113 24.856C118.641 25.016 118.141 25.096 117.613 25.096ZM125.546 25.096C124.746 25.096 124.05 24.92 123.458 24.568C122.874 24.216 122.422 23.716 122.102 23.068C121.782 22.42 121.622 21.656 121.622 20.776C121.622 19.888 121.778 19.12 122.09 18.472C122.41 17.816 122.866 17.316 123.458 16.972C124.05 16.62 124.746 16.444 125.546 16.444C126.354 16.444 127.054 16.62 127.646 16.972C128.238 17.316 128.69 17.816 129.002 18.472C129.322 19.12 129.482 19.884 129.482 20.764C129.482 21.644 129.322 22.412 129.002 23.068C128.69 23.716 128.238 24.216 127.646 24.568C127.054 24.92 126.354 25.096 125.546 25.096ZM125.546 24.088C126.394 24.088 127.054 23.8 127.526 23.224C127.998 22.648 128.234 21.828 128.234 20.764C128.234 19.7 127.998 18.884 127.526 18.316C127.062 17.74 126.402 17.452 125.546 17.452C124.706 17.452 124.05 17.74 123.578 18.316C123.114 18.884 122.882 19.7 122.882 20.764C122.882 21.828 123.114 22.648 123.578 23.224C124.05 23.8 124.706 24.088 125.546 24.088ZM137.528 16.48C137.704 16.48 137.844 16.54 137.948 16.66C138.06 16.772 138.116 16.92 138.116 17.104V24.436C138.116 24.62 138.06 24.772 137.948 24.892C137.836 25.004 137.692 25.06 137.516 25.06C137.308 25.06 137.148 24.98 137.036 24.82L132.332 18.616V24.436C132.332 24.62 132.276 24.772 132.164 24.892C132.06 25.004 131.92 25.06 131.744 25.06C131.568 25.06 131.428 25.004 131.324 24.892C131.22 24.78 131.168 24.628 131.168 24.436V17.104C131.168 16.92 131.224 16.772 131.336 16.66C131.448 16.54 131.592 16.48 131.768 16.48C131.976 16.48 132.136 16.56 132.248 16.72L136.952 22.936V17.104C136.952 16.92 137.004 16.772 137.108 16.66C137.212 16.54 137.352 16.48 137.528 16.48ZM142.726 25.06C142.542 25.06 142.39 25.004 142.27 24.892C142.158 24.772 142.102 24.62 142.102 24.436V17.572H139.702C139.318 17.572 139.126 17.4 139.126 17.056C139.126 16.888 139.174 16.76 139.27 16.672C139.374 16.584 139.518 16.54 139.702 16.54H145.75C145.934 16.54 146.074 16.584 146.17 16.672C146.274 16.76 146.326 16.888 146.326 17.056C146.326 17.4 146.134 17.572 145.75 17.572H143.35V24.436C143.35 24.62 143.294 24.772 143.182 24.892C143.07 25.004 142.918 25.06 142.726 25.06ZM153.796 24.28C153.836 24.376 153.856 24.456 153.856 24.52C153.856 24.672 153.792 24.8 153.664 24.904C153.544 25.008 153.408 25.06 153.256 25.06C153.152 25.06 153.052 25.032 152.956 24.976C152.868 24.912 152.8 24.824 152.752 24.712L151.96 22.912H147.568L146.776 24.712C146.728 24.824 146.656 24.912 146.56 24.976C146.464 25.032 146.364 25.06 146.26 25.06C146.1 25.06 145.956 25.008 145.828 24.904C145.708 24.8 145.648 24.672 145.648 24.52C145.648 24.456 145.668 24.376 145.708 24.28L149.092 16.876C149.148 16.748 149.236 16.648 149.356 16.576C149.484 16.504 149.616 16.468 149.752 16.468C149.888 16.468 150.016 16.504 150.136 16.576C150.264 16.648 150.356 16.748 150.412 16.876L153.796 24.28ZM151.528 21.928L149.764 17.956L148.012 21.928H151.528ZM156.765 25.06C156.581 25.06 156.429 25.004 156.309 24.892C156.197 24.772 156.141 24.62 156.141 24.436V17.572H153.741C153.357 17.572 153.165 17.4 153.165 17.056C153.165 16.888 153.213 16.76 153.309 16.672C153.413 16.584 153.557 16.54 153.741 16.54H159.789C159.973 16.54 160.113 16.584 160.209 16.672C160.313 16.76 160.365 16.888 160.365 17.056C160.365 17.4 160.173 17.572 159.789 17.572H157.389V24.436C157.389 24.62 157.333 24.772 157.221 24.892C157.109 25.004 156.957 25.06 156.765 25.06ZM164.511 25.096C163.711 25.096 163.015 24.92 162.423 24.568C161.839 24.216 161.387 23.716 161.067 23.068C160.747 22.42 160.587 21.656 160.587 20.776C160.587 19.888 160.743 19.12 161.055 18.472C161.375 17.816 161.831 17.316 162.423 16.972C163.015 16.62 163.711 16.444 164.511 16.444C165.319 16.444 166.019 16.62 166.611 16.972C167.203 17.316 167.655 17.816 167.967 18.472C168.287 19.12 168.447 19.884 168.447 20.764C168.447 21.644 168.287 22.412 167.967 23.068C167.655 23.716 167.203 24.216 166.611 24.568C166.019 24.92 165.319 25.096 164.511 25.096ZM164.511 24.088C165.359 24.088 166.019 23.8 166.491 23.224C166.963 22.648 167.199 21.828 167.199 20.764C167.199 19.7 166.963 18.884 166.491 18.316C166.027 17.74 165.367 17.452 164.511 17.452C163.671 17.452 163.015 17.74 162.543 18.316C162.079 18.884 161.847 19.7 161.847 20.764C161.847 21.828 162.079 22.648 162.543 23.224C163.015 23.8 163.671 24.088 164.511 24.088Z" fill="#E5E5E5"/>
<path fill-rule="evenodd" clip-rule="evenodd" d="M31.2337 12.6666H17.7273C16.7987 12.6666 16.0474 13.4266 16.0474 14.3555L16.0389 24.4888C16.0389 25.4177 16.7987 26.1777 17.7273 26.1777H31.2337C32.1623 26.1777 32.9221 25.4177 32.9221 24.4888V14.3555C32.9221 13.4266 32.1623 12.6666 31.2337 12.6666ZM31.2338 16.0445L24.4805 20.2667L17.7273 16.0445V14.3556L24.4805 18.5778L31.2338 14.3556V16.0445Z" fill="#E5E5E5"/>
</svg>
